<svg xmlns="http://www.w3.org/2000/svg" width="1000" height="1000" viewBox="0 0 265 265"><path d="M60 203c-9 2 124-142 124-142-1 2 30 73 30 73l2 17v2c2 1 2 2 1 4-2 1 0 2 1 4l1 6 1 7c1 5 0 9-1 14l-1 3v1l-1 4-7 11-4 4c-3 3-51 15-56 11-6-4-83-20-90-19Z" style="fill:#eac9a7" transform="matrix(1.2556029 0 0 1.2343547 -26 -20)"/><path d="m216 177 2 2v5l-2 2c-2 2-9-1-9-4l-1-1c-2-2-2-5 0-5l10 1Zm-70 16h-1l-2-1c-1 0-2-1-2-3l-1-1c-1-2 0-4 2-4h1l2-1h1c2-3 9 1 9 5s-3 6-9 5Z" style="fill:#af515f" transform="matrix(1.2556029 0 0 1.2343547 -26 -20)"/><ellipse cx="172.2" cy="180" rx="4.9" ry="5" style="stroke:#000;fill:#fff"/><ellipse cx="234.4" cy="176.3" rx="4.7" ry="5.2" style="stroke:#000;fill:#fff"/><path d="m46 230-8-3-7-5-1-1-1-1-1-1c-2-2-4-8-4-9l-2-5-1-1c-1-2 1-3 4-2l1 1c0 2 4 6 6 6h1c4 3 13-3 14-9v-2c2-5 2-5 2-11l-1-8-4-13v-6l-1-2v-6l-2-13v-9l1-12 1-1 1-3 2-11 1-2 1-1v-2l2-4 1-2 10-13 4-4a759 759 0 0 0 22-16l2-1 3-1 3-1 4-1 4-1h22l1-1v-1h2l3-1 4-1 11 1 3 1 5 1h3c4 1 6-1 6-10v-4l-1-3-1-2v-2c0-2-6-9-9-11s-4-3-2-4h5l7 2c3 3 6 7 7 11l1 5-1 5c0 3-1 7-3 10l-1 2-1 1h4l9-1a39 39 0 0 1 24 12l2 1 2 1 1 1 3 1 11 5c6 6 8 9 9 12l1 4 1 7v18c-1 2-3 1-3-1v-1l-1-1c0-2-4-6-6-7l-1-1c-1 0-2 1-1 3l-1 20-1 4c1 2 0 4-2 4l-2-1-1-2-2-2-1-2-5-13c0-2-1-2-2 0v2l1 1h-1l-1 1v3c-1 2-2 6-1 8v3c-2 2-3 0-5-5l-1-5v-3l-1-4v-4l-1-4-1-6v-5l-1-2-2-3-1-2-1-1-1-1-3-2-1-1-2-1h-1l-2-1h-1c-3 0-3 1-2 5v7l-1 8-1 4-1 2v1l-1 2v3l-1 3-1 1-1 1v2l-5 6-2 2-4 4-2 2-1 2v4l15 1c2 0 2 3 1 3l-2 1-6 2h-2l-10 2c-8 1-16 0-16-3l1-2 3-2h1l2-1h4l4-1v-3c1 0 3-5 3-8l-1-14-1 1v1l-1 2-2 5-1 2-1 3-1 1-4 5-2 2-3 3-5 4-4 3-1 1h-2l-2 2-1 1c-2 0-2 6-1 10v2l2 5c1 3 4 3 8 1l2-1v-1c-1-2 2-6 4-4 1 2 4 0 6-3l4-4 2-1c4-2 14-2 17 0l1 1 2 1 2 1 1 1 3 3 3 1c2 1 2 2 1 4-1 1-1 1-3-1l-3-2-2-2-4-1v1h-1v1l-1 3-2 3v1l-4 5h-5l-2-1h-1l-3-1h-1l-1-2-3-4c0-2-2-1-2 1l-2 1h-4l-1 1v1l-1 2-7 9h-1l-2 1h-6l-5-2-4-2-3-2-2-1v-1l-1-1h-1c-2-1-4-1-4 1l-1 4c0 5 1 7 2 7l2 1 3-1 2-1v3c0 3 1 5 4 8l2 1 1 1 3 1 2 1 1 1 4 1h3c1 1 3 2 5 1l5-1h1l1-1 1-1 1-1h2l2 1v1c0 2 0 2-4 6-3 4-4 5-3 6l1 1 1 1 9 3 5 1c11 1 22 0 33-3l9-1 7-2 1-1 10-8 5-8 2-4v-2l1-2 1-3v-3h-3l-7-1c-3-4-1-9 3-6h2l4 1c1 1 2 1 1-1v-8l-1-1v-3l-1-2v-2c-1-2-2-2-1 1l-4 5-1 1h-7c-1 0-4-3-4-5v-1l-2 2c0 2-1 3-3 2v-9l1-1 5-4 1-1h3l3 1 2 1h1l1 1h1l1 1 1-1-1-8c0-2 0-3-1-2l-4 1-2 1-5-1h-5c-1 0-3-3-2-5l10-2h3l2 1h2l1 1c1 1 2 1 1-1s1-7 2-7 2 5 1 6l1 14 1 2c2 0 3 1 1 3l1 9 2 15-2 8v2l-1 2-1 4-1 2c0 2-4 8-6 9l-4 4-8 5-9 3-6 1-2 1-5 1-15 2h-7l-9-1h-2l-2-1-3-1-3-1h-1l-4-3h-1c0-1-1-2-2-1 0 1-2 2-6 2l-4 1-2 1h-2c-2 1-7 0-10-1l-12-5h-1l-1-1-2-1c-2-2-2-2-3-1l-4 4-8 7-10 6-9 2h-7Zm68-24-1-1-2-1-2-1-4-2-3-2-1-1-1-1-5-3-2-1 5 6 2 1c2 3 9 6 11 6h3Zm99-26c1-1 0-1-1-1v1h1Zm-53-16v-1l1-1c1-1 1-1-1-3-4-1-5-1-5 2v1l1 2 1 1 3-1Zm49-2 1-2-1-1c1 0 0 0 0 0v-2c-3-2-5-1-4 2l1 1 2 2h1Zm-22 43h-1c-2 0-3 0-6-3l-2-2v-3c1-1 4 0 4 1 0 3 7 6 9 4h2l1-1c2-2 4-2 4 0l-3 3-1 1h-7Zm-41-14-1-1h-2l-2-1-1-1c-1-1 0-4 2-4h6c2-1 6-1 6 1 2 4-1 6-8 6Zm4-3c3 0 3-2 0-2l-4 1 2 1h2Zm43 2-2-1-1-2-2-6c2-2 7-2 8 0l2 1c2 0 1 5-1 6l-1 1c0 1-2 2-3 1Zm3-5-2-2c-2-1-2 0-1 1l3 1Z" style="fill:#1d1c1a;fill-opacity:1" transform="matrix(1.2556029 0 0 1.2343547 -26 -20)"/><path d="m176 191 1-3 2-5c4-3 7 3 8 4l4 2c0 2-6 4-7 6l-5-2c-1-1-3 1-3-2Z" style="stroke:#fff;paint-order:stroke;fill:#fff"/><path d="M146 190c0-1 1-3 2-2l1 1 3 6 3 2-3 1-3-2-3-1v-5" style="paint-order:stroke;fill:#fff;stroke:#fff"/></svg>